<svg width="16" height="16" viewBox="0 0 16 16" fill="none" xmlns="http://www.w3.org/2000/svg">
<path d="M7.89138 0.0377245C7.7445 0.115849 7.75075 -0.0497761 7.75075 3.9596V7.75023H3.96638C1.60388 7.75023 0.163252 7.76272 0.128877 7.78148C0.0976265 7.7971 0.0538765 7.85335 0.0320015 7.90648C-0.0148735 8.01585 0.0320015 8.16897 0.128877 8.21898C0.163252 8.23772 1.60388 8.25023 3.96638 8.25023H7.75075V12.0346C7.75075 14.3971 7.76325 15.8377 7.782 15.8721C7.832 15.969 7.98513 16.0159 8.0945 15.969C8.14763 15.9471 8.20388 15.9034 8.2195 15.8721C8.23825 15.8377 8.25075 14.3971 8.25075 12.0346V8.25023H12.0351C14.3976 8.25023 15.8383 8.23772 15.8726 8.21898C15.9039 8.20335 15.9476 8.1471 15.9695 8.09398C16.0164 7.9846 15.9695 7.83148 15.8726 7.78148C15.8383 7.76272 14.3976 7.75023 12.0351 7.75023H8.25075V3.9721C8.25075 1.89398 8.24138 0.168974 8.232 0.140849C8.21013 0.0877237 8.06325 0.000224113 7.9945 0.000224113C7.97263 0.000224113 7.92575 0.0189743 7.89138 0.0377245Z" fill="#282522"/>
</svg>
