<svg width="38" height="35" viewBox="0 0 38 35" fill="none" xmlns="http://www.w3.org/2000/svg">
<path d="M9.93619 0.0132866C6.52705 0.28067 3.47441 2.23406 1.58787 5.36839C-0.647754 9.09691 -0.52149 13.9247 1.95924 18.9084C4.04632 23.0974 7.51488 27.0116 12.4243 30.7105C14.8754 32.5599 18.4999 34.8252 18.9975 34.8252C19.4877 34.8252 23.1123 32.5673 25.4965 30.7699C30.4431 27.0488 33.9413 23.1049 36.0358 18.9084C37.9966 14.9719 38.5091 11.0577 37.4842 7.81199C36.3626 4.21716 33.5254 1.37249 30.1014 0.377224C28.3485 -0.127834 26.3506 -0.0981255 24.4938 0.458927C22.6072 1.03083 20.4533 2.50887 19.3689 3.97205C19.1832 4.21716 19.0198 4.41769 18.9975 4.41769C18.9753 4.41769 18.8119 4.21716 18.6262 3.97205C17.5418 2.50887 15.3879 1.03083 13.5013 0.458927C12.4392 0.139549 10.872 -0.0535583 9.93619 0.0132866ZM12.0901 1.42448C12.8477 1.55817 13.843 1.88498 14.4817 2.20435C15.8558 2.88766 17.2744 4.14288 18.0691 5.35354C18.5816 6.14826 18.6485 6.20768 18.9975 6.20768C19.3466 6.20768 19.4135 6.14826 19.926 5.35354C20.7133 4.14288 22.1467 2.88024 23.4911 2.21178C25.5113 1.20909 27.992 1.00855 30.0643 1.67701C30.8441 1.92954 31.9805 2.53115 32.6713 3.04364C35.3599 5.0713 36.8974 8.36161 36.7191 11.7039C36.5483 14.8308 35.5456 17.6681 33.518 20.7653C31.1709 24.3527 27.1825 28.1703 22.4512 31.3566C21.2777 32.1514 19.1164 33.466 18.9975 33.466C18.8787 33.466 16.7173 32.1514 15.5438 31.3566C10.0996 27.695 5.7546 23.2905 3.50412 19.1684C1.52103 15.5364 0.800575 11.7262 1.55074 8.77754C2.27861 5.89573 4.20972 3.42986 6.7053 2.19692C8.48786 1.3205 10.1293 1.08282 12.0901 1.42448Z" fill="#767370"/>
</svg>
