<svg width="29" height="29" viewBox="0 0 29 29" fill="none" xmlns="http://www.w3.org/2000/svg">
<path d="M14.3018 0.0679474C14.0356 0.209549 14.0469 -0.0906448 14.0469 7.17635V14.0469H7.18771C2.90568 14.0469 0.294551 14.0695 0.232246 14.1035C0.175605 14.1318 0.0963084 14.2338 0.05666 14.3301C-0.028301 14.5283 0.05666 14.8058 0.232246 14.8965C0.294551 14.9304 2.90568 14.9531 7.18771 14.9531H14.0469V21.8123C14.0469 26.0943 14.0695 28.7054 14.1035 28.7678C14.1942 28.9433 14.4717 29.0283 14.6699 28.9433C14.7662 28.9037 14.8682 28.8244 14.8965 28.7678C14.9305 28.7054 14.9531 26.0943 14.9531 21.8123V14.9531H21.8123C26.0944 14.9531 28.7055 14.9304 28.7678 14.8965C28.8244 14.8681 28.9037 14.7662 28.9434 14.6699C29.0283 14.4717 28.9434 14.1941 28.7678 14.1035C28.7055 14.0695 26.0944 14.0469 21.8123 14.0469H14.9531V7.199C14.9531 3.4324 14.9362 0.305838 14.9192 0.254862C14.8795 0.158571 14.6133 -2.09808e-05 14.4887 -2.09808e-05C14.449 -2.09808e-05 14.3641 0.0339622 14.3018 0.0679474Z" fill="#282522"/>
</svg>
