<svg width="14" height="14" viewBox="0 0 14 14" fill="none" xmlns="http://www.w3.org/2000/svg">
<path d="M6.33066 0.0301437C4.69824 0.196941 3.21074 0.899675 2.05684 2.05085C-0.683008 4.78522 -0.683008 9.21491 2.05684 11.9493C3.16973 13.0567 4.51777 13.7184 6.13926 13.9508C6.46465 13.9973 7.53926 13.9946 7.87559 13.9481C10.6018 13.5708 12.7947 11.7606 13.6479 9.1821C13.8939 8.43561 13.9869 7.84772 13.9869 7.00007C13.9869 6.15241 13.8939 5.56452 13.6479 4.81804C12.8057 2.2696 10.6455 0.462175 7.97129 0.065691C7.6377 0.0164719 6.66699 -0.00540257 6.33066 0.0301437ZM7.88926 1.16218C9.54629 1.41921 11.001 2.3489 11.9225 3.74069C13.0162 5.38679 13.2076 7.50046 12.4338 9.30788C11.6162 11.2137 9.92637 12.5208 7.86191 12.8434C7.45449 12.9091 6.53027 12.9063 6.12832 12.8434C3.5252 12.4223 1.56191 10.4591 1.15723 7.8614C1.0916 7.4485 1.0916 6.55163 1.15723 6.13874C1.41973 4.46257 2.33027 3.02155 3.7166 2.0946C4.54238 1.54225 5.4502 1.22233 6.52207 1.11022C6.74355 1.08835 7.62402 1.12116 7.88926 1.16218Z" fill="#767370"/>
<path d="M6.74023 3.76307C6.58164 3.81776 6.45039 3.93807 6.35742 4.10487C6.28633 4.23339 6.27539 4.27987 6.27539 4.4576C6.27812 4.7037 6.33281 4.82675 6.51602 4.99628C6.87422 5.3244 7.42656 5.21776 7.66445 4.77206C7.7082 4.69003 7.72461 4.61346 7.72461 4.4576C7.72461 4.27987 7.71367 4.23339 7.64258 4.10487C7.59883 4.02557 7.51953 3.9244 7.46758 3.88065C7.28164 3.72753 6.97812 3.67831 6.74023 3.76307Z" fill="#767370"/>
<path d="M6.825 5.89286C6.69102 5.93935 6.5707 6.05419 6.50508 6.19364C6.45859 6.29755 6.45312 6.41239 6.45312 8.1788V10.0546L6.51602 10.1749C6.71016 10.544 7.21055 10.5714 7.45117 10.2296L7.5332 10.112L7.54141 8.22255C7.54961 6.10341 7.55781 6.18818 7.35547 6.00497C7.19414 5.86005 7.01914 5.82177 6.825 5.89286Z" fill="#767370"/>
</svg>
