<svg width="16" height="6" viewBox="0 0 16 6" fill="none" xmlns="http://www.w3.org/2000/svg">
<path d="M0.48663 0.0262871C0.280254 0.0684189 0.161432 0.148001 0.0582443 0.309506C-0.0199282 0.431221 -0.0199282 0.564638 0.0613712 0.695715C0.145797 0.836154 0.202082 0.880627 0.386569 0.943824L0.542914 1H8.00057H15.4582L15.6146 0.943824C15.7991 0.880627 15.8553 0.836154 15.9398 0.695715C16.0555 0.506122 16.0023 0.300144 15.7991 0.148001C15.5927 -0.00648212 16.2587 0.00522119 8.06311 0.000539899C2.10324 -0.00180078 0.608579 0.00288051 0.48663 0.0262871Z" fill="#282522"/>
<path d="M0.390625 5.0563C0.30625 5.0868 0.209375 5.13138 0.18125 5.15484C0.090625 5.23226 0 5.40587 0 5.5044C0 5.68974 0.203125 5.90557 0.434375 5.96657C0.6 6.01114 15.4 6.01114 15.5656 5.96657C15.7969 5.90557 16 5.68974 16 5.5044C16 5.40587 15.9094 5.23226 15.8188 5.15484C15.7906 5.13138 15.6969 5.0868 15.6094 5.0563L15.4531 5H8H0.546875L0.390625 5.0563Z" fill="#282522"/>
</svg>
