<svg width="47" height="47" viewBox="0 0 47 47" fill="none" xmlns="http://www.w3.org/2000/svg">
<g clip-path="url(#clip0_313_2718)">
<path d="M0 23.5V47H23.5H47V23.5V0H23.5H0V23.5ZM45.4333 23.5V45.4333H23.5H1.56667V23.5V1.56667H23.5H45.4333V23.5Z" fill="#282522"/>
<path d="M14.4073 8.40047C11.4147 8.99715 8.9729 11.4665 8.39458 14.4866C8.20181 15.4872 8.20181 31.5149 8.39458 32.5155C8.91782 35.2511 10.8639 37.445 13.5903 38.3905L14.4624 38.6934L23.1372 38.721C29.0672 38.7393 31.9956 38.7118 32.3903 38.6475C35.4838 38.1151 38.0174 35.6182 38.6141 32.5155C38.8069 31.5057 38.8069 15.4872 38.6141 14.4774C38.0266 11.4206 35.5756 8.97879 32.5188 8.39129C31.5641 8.2077 15.3252 8.21688 14.4073 8.40047ZM31.968 11.6684C33.602 12.0081 34.9973 13.4034 35.337 15.0374C35.4747 15.7167 35.4747 31.2854 35.337 31.9647C35.0065 33.5528 33.7397 34.8747 32.1241 35.297C31.3897 35.4989 15.619 35.4989 14.8846 35.297C13.2782 34.8747 12.0022 33.5528 11.6717 31.9647C11.534 31.2854 11.534 15.7167 11.6717 15.0374C12.0022 13.4585 13.3333 12.0815 14.903 11.696C15.5456 11.5399 31.2336 11.5124 31.968 11.6684Z" fill="#282522"/>
<path d="M30.7336 13.7702C30.1645 14.0731 29.7422 14.7983 29.7422 15.4685C29.7422 15.854 30.1369 16.6251 30.449 16.8546C31.5322 17.644 33.0102 17.1759 33.3773 15.9183C33.6252 15.0646 33.2305 14.1466 32.4777 13.7794C31.9545 13.5315 31.2018 13.5315 30.7336 13.7702Z" fill="#282522"/>
<path d="M22.5277 15.6951C19.9941 16.0072 17.6809 17.6503 16.5242 19.9636C15.8725 21.2579 15.6797 22.0749 15.6797 23.4978C15.6797 24.9206 15.8725 25.7284 16.5242 27.032C17.2861 28.5742 18.4061 29.6941 19.9666 30.4743C21.2334 31.1169 22.0779 31.3189 23.4549 31.3281C25.8967 31.3372 27.9254 30.4009 29.5318 28.5099C30.1377 27.8122 30.8813 26.3527 31.1291 25.3796C31.4045 24.3423 31.4045 22.6349 31.1291 21.6159C30.7527 20.1931 30.0092 18.9171 28.9994 17.9257C28.2375 17.1822 27.7693 16.8517 26.8605 16.4202C25.5387 15.7868 23.9598 15.5298 22.5277 15.6951ZM25.4561 19.4404C26.4383 19.9269 27.1359 20.6337 27.6133 21.6343C27.9529 22.3411 27.9529 22.3595 27.9529 23.507V24.6544L27.5674 25.4439C26.7504 27.087 25.3 27.9958 23.5008 27.9958C22.1697 27.9958 21.2885 27.6286 20.3246 26.674C19.3057 25.6458 18.9568 24.737 19.0211 23.2408C19.0486 22.4421 19.0854 22.2769 19.3883 21.6343C19.8656 20.6337 20.5725 19.9177 21.5271 19.4587C22.4359 19.0181 22.5002 19.0089 23.7027 19.0365C24.6574 19.0548 24.7217 19.0732 25.4561 19.4404Z" fill="#282522"/>
</g>
<defs>
<clipPath id="clip0_313_2718">
<rect width="47" height="47" fill="white"/>
</clipPath>
</defs>
</svg>
