<svg width="48" height="47" viewBox="0 0 48 47" fill="none" xmlns="http://www.w3.org/2000/svg">
<g clip-path="url(#clip0_313_2713)">
<path d="M0.400391 23.5V47H23.9004H47.4004V23.5V0H23.9004H0.400391V23.5ZM45.8337 23.5V45.4333H23.9004H1.96706V23.5V1.56667H23.9004H45.8337V23.5Z" fill="#282522"/>
<path d="M21.817 8.40043C15.8043 9.28168 10.8656 13.6971 9.3418 19.5538C9.02969 20.7655 8.92872 21.4264 8.87364 22.8584C8.76348 25.3278 9.28672 27.8063 10.3975 30.037L10.8473 30.9457L9.78243 34.8012C9.20411 36.9217 8.74512 38.6842 8.77266 38.7026C8.79102 38.7209 10.5811 38.2711 12.7475 37.702L16.6856 36.6647L17.5117 37.0502C19.5313 37.9866 21.1561 38.3629 23.4785 38.4364C25.2227 38.4914 26.26 38.3813 27.7471 38.0049C33.2641 36.5913 37.551 32.0748 38.7627 26.3926C39.0197 25.2176 39.1115 22.6657 38.9463 21.454C38.2854 16.4051 35.1826 12.0815 30.6203 9.79575C29.8951 9.42856 28.3988 8.87778 27.6094 8.68501C25.9387 8.27192 23.5244 8.15258 21.817 8.40043ZM25.7551 10.934C29.6381 11.5124 32.9244 13.7706 34.898 17.2129C36.0822 19.2784 36.6697 21.9497 36.4678 24.3088C36.3668 25.4747 36.3209 25.7317 36.0455 26.7139C35.1643 29.9268 33.0529 32.6256 30.0879 34.3239C26.3793 36.4536 21.4039 36.4352 17.732 34.2872C17.4291 34.1127 17.1262 33.9659 17.0527 33.9659C16.9793 33.9659 15.9053 34.2321 14.6568 34.5625C13.4084 34.8838 12.3711 35.15 12.3619 35.1317C12.3527 35.1225 12.6281 34.0852 12.977 32.8184L13.6012 30.5327L13.2799 30.0094C10.2322 24.9881 10.9482 18.6909 15.0332 14.56C16.9242 12.6506 19.1732 11.4665 21.8721 10.9799C22.7166 10.8239 24.8647 10.7963 25.7551 10.934Z" fill="#282522"/>
<path d="M18.2444 16.4314C18.0883 16.4865 17.7762 16.7068 17.5559 16.9363C15.9495 18.5611 15.8669 20.7367 17.3173 23.1326C18.8411 25.6387 21.494 28.2182 23.6788 29.3197C25.735 30.3478 27.47 30.7885 28.6266 30.5773C29.8567 30.357 31.1786 29.4115 31.4264 28.5853C31.61 27.9611 31.6467 27.0982 31.5091 26.9238C31.3163 26.6851 28.3971 25.3174 27.984 25.2715C27.626 25.2256 27.6077 25.2348 27.1395 25.859C26.4051 26.8137 26.0471 27.1717 25.8085 27.1717C25.4505 27.1717 23.7981 26.2904 22.9352 25.6295C21.7419 24.7207 20.2272 22.8572 20.2272 22.2881C20.2272 22.132 20.3741 21.875 20.6495 21.5537C21.1176 21.0121 21.4206 20.4797 21.4206 20.1951C21.4206 20.0941 21.1635 19.4057 20.8606 18.6621C20.2089 17.1016 20.0161 16.6885 19.8417 16.5508C19.6764 16.4131 18.584 16.3305 18.2444 16.4314Z" fill="#282522"/>
</g>
<defs>
<clipPath id="clip0_313_2713">
<rect width="47" height="47" fill="white" transform="translate(0.400391)"/>
</clipPath>
</defs>
</svg>
