<svg width="48" height="47" viewBox="0 0 48 47" fill="none" xmlns="http://www.w3.org/2000/svg">
<g clip-path="url(#clip0_313_2705)">
<path d="M0.199219 23.5V47H23.6992H47.1992V23.5V0H23.6992H0.199219V23.5ZM45.6326 23.5V45.4333H23.6992H1.76589V23.5V1.56667H23.6992H45.6326V23.5Z" fill="#282522"/>
<path d="M19.4318 14.9982C19.1013 15.1451 18.5138 15.7785 18.624 15.8795C18.6607 15.9162 18.8626 15.9988 19.0646 16.0631C19.9091 16.3293 20.2396 16.825 20.3957 18.0826C20.5884 19.6432 20.4507 21.9932 20.1294 22.7275C19.9367 23.1498 19.6705 23.2967 19.2574 23.1865C18.523 23.0029 16.6412 20.2031 15.4478 17.5227C14.7869 16.0539 14.6767 15.8611 14.3279 15.65C14.0341 15.4756 13.8505 15.4664 11.4914 15.4664C9.22398 15.4664 8.93023 15.4848 8.70991 15.6316C8.36109 15.8611 8.38863 16.1916 8.84761 17.2473C9.50855 18.7711 11.1425 21.9289 12.033 23.4068C13.6302 26.0598 14.8328 27.6662 16.2097 28.9789C18.4771 31.1545 20.9556 32.1275 24.2052 32.1275C25.674 32.1275 26.1238 31.9164 26.2156 31.1729C26.4542 29.2176 26.647 28.5934 27.0968 28.2721C27.6292 27.8865 28.125 28.0977 29.0796 29.1074C31.191 31.3289 31.3562 31.4941 31.9621 31.7879L32.5587 32.0816L35.4228 32.1092L38.2869 32.1367L38.5714 31.8797C38.7734 31.6961 38.8744 31.5125 38.9111 31.2371C39.0212 30.3926 38.1951 29.2543 35.7166 26.8033C33.9449 25.05 33.8347 24.8848 34.055 24.1596C34.1193 23.9668 34.872 22.8652 35.7349 21.7086C38.1767 18.4498 38.8101 17.385 38.9111 16.3936C39.0029 15.5031 38.7091 15.4205 35.2392 15.4205C32.3935 15.4205 32.0998 15.4664 31.8611 15.8979C31.7968 16.008 31.5031 16.6506 31.2185 17.3115C30.3281 19.377 29.4101 20.91 28.281 22.2686C27.3539 23.3793 26.8765 23.4803 26.4359 22.6541C26.2339 22.2686 26.2248 22.1859 26.1789 18.8904L26.133 15.5123L25.83 15.2186L25.5363 14.9156L22.6171 14.8973C20.3498 14.8789 19.6429 14.8973 19.4318 14.9982Z" fill="#282522"/>
</g>
<defs>
<clipPath id="clip0_313_2705">
<rect width="47" height="47" fill="white" transform="translate(0.199219)"/>
</clipPath>
</defs>
</svg>
