<svg width="48" height="47" viewBox="0 0 48 47" fill="none" xmlns="http://www.w3.org/2000/svg">
<g clip-path="url(#clip0_313_2709)">
<path d="M0.800781 23.5V47H24.3008H47.8008V23.5V0H24.3008H0.800781V23.5ZM46.2341 23.5V45.4333H24.3008H2.36745V23.5V1.56667H24.3008H46.2341V23.5Z" fill="#282522"/>
<path d="M23.9863 15.8351C13.9162 19.7273 9.34467 21.5357 9.23451 21.6734C9.00502 21.9488 9.02338 22.4353 9.28041 22.7015C9.4181 22.8575 10.5197 23.3073 13.0165 24.2437C14.9626 24.9597 16.5783 25.5931 16.6058 25.639C16.6333 25.6849 17.2667 27.6861 18.0103 30.0911C19.479 34.8462 19.4974 34.8829 20.14 34.8829C20.4613 34.8829 20.7642 34.6534 24.1056 31.9271C24.7757 31.3763 24.9134 31.3029 25.2531 31.3029C25.4826 31.3029 25.7671 31.3855 25.9599 31.4956C26.1343 31.6058 27.8326 32.8175 29.7328 34.2036C31.6238 35.5806 33.2853 36.7372 33.4138 36.7648C33.7351 36.8474 34.1665 36.6087 34.2951 36.2874C34.4328 35.9478 39.5458 11.3095 39.5458 10.9974C39.5458 10.6761 39.197 10.2906 38.8574 10.2355C38.6462 10.2079 35.0662 11.5573 23.9863 15.8351ZM33.0099 15.881C33.0191 15.9636 30.6415 18.231 27.1716 21.4622C22.8113 25.5105 21.2507 27.0159 21.1038 27.3005C20.9753 27.5759 20.8468 28.2093 20.6816 29.3751C20.5439 30.4124 20.4062 31.0917 20.3419 31.1376C20.1216 31.2661 19.9013 31.2111 19.8095 30.9999C19.6259 30.5593 18.249 25.538 18.249 25.2993C18.249 24.9964 18.4326 24.62 18.7079 24.3722C19.1119 23.9958 32.6244 15.7157 32.7988 15.7249C32.8997 15.7341 32.9915 15.8075 33.0099 15.881Z" fill="#282522"/>
</g>
<defs>
<clipPath id="clip0_313_2709">
<rect width="47" height="47" fill="white" transform="translate(0.800781)"/>
</clipPath>
</defs>
</svg>
