<svg width="17" height="17" viewBox="0 0 17 17" fill="none" xmlns="http://www.w3.org/2000/svg">
<g clip-path="url(#clip0_218_2334)">
<g clip-path="url(#clip1_218_2334)">
<path d="M8.31681 0.315381C7.18127 0.564404 6.4508 1.69663 6.68986 2.83882C6.81603 3.44644 7.25763 4.01421 7.80881 4.27983C8.45295 4.59194 9.09045 4.59194 9.72795 4.27983C10.4385 3.9312 10.9199 3.12437 10.8834 2.34741L10.8735 2.12495H11.5973H12.3211L12.4008 2.04194C12.4539 1.99214 12.4838 1.92241 12.4838 1.85933C12.4838 1.79624 12.4539 1.72651 12.4008 1.67671L12.3211 1.5937H11.5276H10.7373L10.6776 1.46753C10.6444 1.40112 10.5514 1.25171 10.4717 1.13882C10.0002 0.478076 9.11701 0.139404 8.31681 0.315381ZM9.14689 0.846631C9.44904 0.926318 9.70802 1.08237 9.92717 1.31812C10.0367 1.43433 10.1264 1.5439 10.1264 1.5605C10.1264 1.58042 9.61506 1.5937 8.76506 1.5937C7.91506 1.5937 7.40373 1.58042 7.40373 1.5605C7.40373 1.5439 7.49338 1.43433 7.60295 1.31812C8.00802 0.883154 8.5924 0.703858 9.14689 0.846631ZM10.3455 2.21128C10.382 2.35737 10.3356 2.72593 10.2526 2.94507C10.0965 3.36675 9.77443 3.69878 9.35939 3.87476C9.17013 3.95444 9.10705 3.9644 8.76506 3.9644C8.42306 3.9644 8.35998 3.95444 8.16408 3.87476C7.61623 3.64565 7.22775 3.10444 7.18127 2.51011C7.17131 2.39058 7.17131 2.25776 7.18459 2.21128L7.20451 2.12495H8.76506H10.3256L10.3455 2.21128Z" fill="#282522"/>
<path d="M11.9531 2.69941C11.7804 2.75586 11.5115 3.03809 11.4617 3.2207C11.4285 3.33359 11.4218 3.86484 11.4285 5.40547L11.4384 7.4375H11.3355C11.2459 7.4375 11.1363 7.33125 10.3129 6.43145C9.80484 5.87695 9.32008 5.37891 9.23707 5.32246C9.00465 5.16641 8.84527 5.12656 8.02848 5.01367C7.15191 4.8875 6.88629 4.89082 6.60074 5.02363C6.34508 5.13984 6.10602 5.37226 5.96988 5.63125L5.86031 5.84375H4.87086H3.88141L3.80172 5.92676C3.69215 6.03301 3.69215 6.18574 3.80172 6.29199L3.88141 6.375H5.17965H6.47789L6.55758 6.29199C6.66051 6.19238 6.66715 6.03633 6.57418 5.94336C6.53766 5.90684 6.49117 5.87695 6.47125 5.87695C6.42477 5.87695 6.52106 5.71758 6.62066 5.63457C6.75016 5.52168 6.9527 5.44531 7.12203 5.44531C7.4275 5.44531 8.70582 5.64121 8.85524 5.71426C8.95816 5.76406 9.23707 6.04629 9.88453 6.7502C10.3726 7.28477 10.8275 7.77617 10.8939 7.84258L11.0168 7.96875H12.2552C13.4273 7.96875 13.5037 7.97207 13.6033 8.03516C13.9519 8.24766 13.8257 8.75234 13.4107 8.80879C13.0388 8.85859 10.5984 9.00801 10.5121 8.98477C10.3925 8.95488 10.4257 8.98809 9.20387 7.62012C8.66598 7.01582 8.19117 6.49121 8.14469 6.44805C8.03844 6.34844 7.88902 6.35176 7.78609 6.45801C7.64332 6.59746 7.6732 6.70371 7.93219 6.99922L8.16129 7.2582L8.11481 7.45742C7.96871 8.06504 7.70309 9.70859 7.70309 9.9875C7.70309 10.0771 7.72633 10.1369 7.77281 10.1801C7.80934 10.2133 8.44684 10.6084 9.19059 11.0566C9.94762 11.5148 10.5652 11.91 10.6017 11.9564C10.6416 12.0129 10.6648 12.0992 10.6648 12.1855C10.6615 12.315 10.5619 12.4811 9.48941 14.0881C8.84527 15.0543 8.28414 15.8744 8.23766 15.9076C8.13805 15.9873 7.88238 15.9906 7.77613 15.9176C7.67652 15.8512 7.60348 15.6984 7.60348 15.5689C7.60348 15.4926 7.82926 15.0576 8.41695 14.0051C8.8652 13.2016 9.23043 12.5109 9.23043 12.4678C9.23043 12.4246 9.19723 12.3516 9.15738 12.3051C9.11422 12.2619 8.57633 11.9332 7.96207 11.5746C6.7734 10.884 6.69703 10.8541 6.57086 10.9969C6.53434 11.04 6.22555 11.6477 5.88688 12.3516C5.5482 13.0555 5.2693 13.6332 5.2693 13.6332C5.26598 13.6365 4.90406 13.693 4.46578 13.7594C4.0275 13.8225 3.17086 13.952 2.56324 14.0449C1.95563 14.1346 1.39449 14.2109 1.31148 14.2109C1.12887 14.2109 0.979453 14.0947 0.929648 13.9121C0.883164 13.7395 0.94625 13.5535 1.08238 13.4639C1.14879 13.4207 2.32418 13.1451 4.00094 12.7799C4.2566 12.7234 4.49566 12.6604 4.52887 12.6371C4.56539 12.6139 4.77457 12.2154 4.99703 11.7506L5.40543 10.9072L5.56148 10.8873C5.83043 10.8574 5.93668 10.615 5.7607 10.4424C5.68434 10.3627 5.66774 10.3594 5.17965 10.3594C4.69156 10.3594 4.67496 10.3627 4.59859 10.4424C4.48902 10.5486 4.48902 10.7014 4.59859 10.8076C4.64176 10.8541 4.70816 10.8906 4.74801 10.8906C4.78453 10.8906 4.81441 10.8973 4.81441 10.9006C4.81441 10.9172 4.21344 12.1656 4.20016 12.1789C4.19352 12.1855 3.46305 12.3549 2.5732 12.5541C1.52398 12.7865 0.916367 12.9393 0.846641 12.9824C0.697227 13.0754 0.511289 13.2879 0.444883 13.4373C0.381797 13.59 0.371836 13.9121 0.424961 14.1014C0.481406 14.2939 0.650742 14.5064 0.84332 14.626C1.1023 14.7854 1.27828 14.7787 2.70602 14.5629C3.38336 14.46 4.29313 14.3205 4.73141 14.2541C5.16969 14.191 5.55816 14.118 5.59469 14.0947C5.63453 14.0715 5.9068 13.5402 6.25543 12.8131C6.58414 12.1291 6.85641 11.568 6.85973 11.5613C6.86305 11.5547 8.56637 12.5375 8.59293 12.5674C8.59957 12.574 8.2775 13.165 7.87574 13.8855C7.4773 14.6027 7.13199 15.2402 7.11207 15.3033C7.02906 15.5457 7.10211 15.9674 7.25816 16.14C7.31461 16.2031 7.29801 16.2031 6.5277 16.2031H5.74078L5.66109 16.2861C5.55152 16.3924 5.55152 16.5451 5.66109 16.6514L5.74078 16.7344H8.10152H10.4623L10.542 16.6514C10.5951 16.6016 10.625 16.5318 10.625 16.4688C10.625 16.4057 10.5951 16.3359 10.542 16.2861L10.4623 16.2031H9.5857H8.70914L9.91109 14.4035C10.5718 13.4107 11.133 12.5408 11.1562 12.4711C11.2591 12.1557 11.1595 11.7307 10.9338 11.5148C10.8839 11.4684 10.2664 11.0832 9.56246 10.6582C8.85855 10.2365 8.27418 9.88125 8.2609 9.86797C8.21441 9.81484 8.55309 7.79277 8.60621 7.80937C8.62281 7.81602 8.95484 8.16465 9.34 8.58301C9.79488 9.07441 10.097 9.37656 10.19 9.42637C10.2929 9.48281 10.4058 9.50937 10.5718 9.51934C10.8507 9.53594 13.5103 9.34668 13.683 9.29688C13.8589 9.24707 14.0681 9.08437 14.181 8.90508C14.347 8.63945 14.3836 8.41035 14.2972 8.1248L14.2507 7.96875H15.1472C15.7548 7.96875 16.0902 7.95547 16.1832 7.92891C16.3658 7.87578 16.6414 7.60019 16.6945 7.41758C16.7509 7.225 16.7509 3.40332 16.6945 3.21406C16.6746 3.14102 16.5916 3.0082 16.5119 2.92188C16.2662 2.64629 16.3459 2.65625 14.0648 2.65957C12.7101 2.66289 12.0328 2.67617 11.9531 2.69941ZM13.0156 4.16699V5.1498L13.0986 5.22949C13.1484 5.28262 13.2148 5.3125 13.2845 5.3125C13.3742 5.3125 13.4439 5.25937 13.7328 4.97383L14.0781 4.63516L14.4234 4.97383C14.7123 5.25937 14.782 5.3125 14.8716 5.3125C14.9414 5.3125 15.0078 5.28262 15.0576 5.22949L15.1406 5.1498V4.16699V3.1875H15.5888C16.0238 3.1875 16.0437 3.19082 16.1201 3.27051L16.2031 3.35019V5.3125V7.2748L16.1201 7.35449L16.0404 7.4375H14.0781H12.1158L12.0361 7.35449L11.9531 7.2748V5.3125V3.35019L12.0361 3.27051C12.1125 3.19082 12.1324 3.1875 12.5673 3.1875H13.0156V4.16699ZM14.6093 3.7918V4.39277L14.3968 4.19023C14.2275 4.02754 14.1611 3.98438 14.0781 3.98438C13.9951 3.98438 13.9287 4.02754 13.7593 4.19023L13.5468 4.39277V3.7918V3.1875H14.0781H14.6093V3.7918Z" fill="#282522"/>
<path d="M12.3018 5.92676C12.2486 5.97656 12.2188 6.04629 12.2188 6.10938C12.2188 6.17246 12.2486 6.24219 12.3018 6.29199C12.3814 6.375 12.3881 6.375 13.0156 6.375C13.6432 6.375 13.6498 6.375 13.7295 6.29199C13.7826 6.24219 13.8125 6.17246 13.8125 6.10938C13.8125 6.04629 13.7826 5.97656 13.7295 5.92676C13.6498 5.84375 13.6432 5.84375 13.0156 5.84375C12.3881 5.84375 12.3814 5.84375 12.3018 5.92676Z" fill="#282522"/>
<path d="M12.3018 6.72363C12.2486 6.77344 12.2188 6.84316 12.2188 6.90625C12.2188 6.96934 12.2486 7.03906 12.3018 7.08887C12.3814 7.17188 12.3881 7.17188 13.0156 7.17188C13.6432 7.17188 13.6498 7.17188 13.7295 7.08887C13.7826 7.03906 13.8125 6.96934 13.8125 6.90625C13.8125 6.84316 13.7826 6.77344 13.7295 6.72363C13.6498 6.64062 13.6432 6.64062 13.0156 6.64062C12.3881 6.64062 12.3814 6.64062 12.3018 6.72363Z" fill="#282522"/>
<path d="M0.879883 5.92676C0.826758 5.97656 0.796875 6.04629 0.796875 6.10938C0.796875 6.17246 0.826758 6.24219 0.879883 6.29199L0.95957 6.375H1.99219H3.0248L3.10449 6.29199C3.21406 6.18574 3.21406 6.03301 3.10449 5.92676L3.0248 5.84375H1.99219H0.95957L0.879883 5.92676Z" fill="#282522"/>
<path d="M0.614258 7.52051C0.561133 7.57031 0.53125 7.64004 0.53125 7.70312C0.53125 7.76621 0.561133 7.83594 0.614258 7.88574L0.693945 7.96875H2.52344H4.35293L4.43262 7.88574C4.54219 7.77949 4.54219 7.62676 4.43262 7.52051L4.35293 7.4375H2.52344H0.693945L0.614258 7.52051Z" fill="#282522"/>
<path d="M5.12988 7.52051C5.07676 7.57031 5.04688 7.64004 5.04688 7.70312C5.04688 7.76621 5.07676 7.83594 5.12988 7.88574C5.20625 7.96543 5.22285 7.96875 5.71094 7.96875C6.19902 7.96875 6.21563 7.96543 6.29199 7.88574C6.34512 7.83594 6.375 7.76621 6.375 7.70312C6.375 7.64004 6.34512 7.57031 6.29199 7.52051C6.21563 7.44082 6.19902 7.4375 5.71094 7.4375C5.22285 7.4375 5.20625 7.44082 5.12988 7.52051Z" fill="#282522"/>
<path d="M0.348633 9.11426C0.295508 9.16406 0.265625 9.23379 0.265625 9.29688C0.265625 9.35996 0.295508 9.42969 0.348633 9.47949L0.42832 9.5625H1.99219H3.55605L3.63574 9.47949C3.74531 9.37324 3.74531 9.22051 3.63574 9.11426L3.55605 9.03125H1.99219H0.42832L0.348633 9.11426Z" fill="#282522"/>
<path d="M4.33301 9.11426C4.27988 9.16406 4.25 9.23379 4.25 9.29688C4.25 9.35996 4.27988 9.42969 4.33301 9.47949L4.4127 9.5625H5.3125H6.2123L6.29199 9.47949C6.34512 9.42969 6.375 9.35996 6.375 9.29688C6.375 9.23379 6.34512 9.16406 6.29199 9.11426L6.2123 9.03125H5.3125H4.4127L4.33301 9.11426Z" fill="#282522"/>
<path d="M1.14551 10.4424C1.09238 10.4922 1.0625 10.5619 1.0625 10.625C1.0625 10.6881 1.09238 10.7578 1.14551 10.8076L1.2252 10.8906H2.52344H3.82168L3.90137 10.8076C4.01094 10.7014 4.01094 10.5486 3.90137 10.4424L3.82168 10.3594H2.52344H1.2252L1.14551 10.4424Z" fill="#282522"/>
</g>
</g>
<defs>
<clipPath id="clip0_218_2334">
<rect width="17" height="17" fill="white"/>
</clipPath>
<clipPath id="clip1_218_2334">
<rect width="17" height="17" fill="white"/>
</clipPath>
</defs>
</svg>
