<svg width="17" height="17" viewBox="0 0 17 17" fill="none" xmlns="http://www.w3.org/2000/svg">
<g clip-path="url(#clip0_171_429)">
<path d="M7.87024 0.0332451C6.58528 0.1893 5.41321 0.776996 4.51673 1.71664C3.76302 2.50356 3.26497 3.46977 3.06907 4.53227C2.98275 4.99711 2.98275 5.88696 3.06575 6.25883C3.48411 8.05512 5.00814 10.7479 7.46849 14.0284C8.36165 15.2204 8.40482 15.2635 8.60071 15.1706C8.6638 15.1407 8.89622 14.8618 9.25149 14.3936C11.7351 11.1098 13.3122 8.44028 13.8302 6.64399C13.9896 6.09282 14.0261 5.78403 14.0029 5.23286C13.9796 4.71157 13.9066 4.29985 13.7472 3.8018C13.5281 3.1145 13.0831 2.3475 12.615 1.84614C12.4025 1.61703 12.3693 1.59379 12.2531 1.59379C12.1501 1.59379 12.107 1.61371 12.0372 1.70004C11.9177 1.8395 11.9443 1.95239 12.1468 2.18149C12.9935 3.15102 13.4251 4.24672 13.4284 5.44536C13.4284 5.79731 13.4118 5.95668 13.3554 6.19243C13.0367 7.48735 12.2663 9.00141 10.8087 11.2061C10.0085 12.4147 8.57747 14.3936 8.5011 14.3936C8.42806 14.3936 7.04681 12.4877 6.24661 11.2891C4.54661 8.73579 3.68001 6.91957 3.57044 5.67778C3.54056 5.34907 3.60364 4.75473 3.71985 4.29321C4.14153 2.61977 5.45306 1.26508 7.1265 0.780315C7.64778 0.627581 8.01634 0.587737 8.6638 0.607659C9.3179 0.627581 9.55032 0.667424 10.1347 0.866643C10.5464 1.0061 10.6394 1.00942 10.749 0.889886C10.8286 0.800237 10.8253 0.584416 10.7423 0.501409C10.6095 0.378557 9.99524 0.179338 9.44739 0.0830498C9.0888 0.0199633 8.21888 -0.00659847 7.87024 0.0332451Z" fill="#282522"/>
<path d="M8.12792 3.22057C7.62987 3.31021 7.23808 3.51607 6.86952 3.88463C6.62714 4.12701 6.55741 4.21666 6.43124 4.48228C6.23202 4.90064 6.19218 5.08326 6.1955 5.54478C6.19882 5.86021 6.21542 5.9731 6.28515 6.19224C6.40468 6.55748 6.58065 6.84303 6.85624 7.12525C7.49374 7.77271 8.41015 7.98521 9.27343 7.68639C9.60878 7.57017 9.84452 7.41744 10.1267 7.13853C10.4156 6.84967 10.5916 6.56744 10.7144 6.19224C10.8373 5.82037 10.8439 5.24928 10.7277 4.88072C10.5982 4.45904 10.4389 4.19674 10.1267 3.88463C9.81796 3.57252 9.55233 3.41314 9.14726 3.28697C8.88495 3.20728 8.37694 3.17408 8.12792 3.22057ZM8.94804 3.83482C9.24022 3.91119 9.45604 4.04068 9.71171 4.29967C10.0769 4.6649 10.2264 5.01353 10.2264 5.51158C10.2264 6.00963 10.0769 6.35826 9.71171 6.72349C9.16718 7.26803 8.42011 7.39088 7.70956 7.04889C7.47714 6.93599 7.09198 6.5608 6.96581 6.32174C6.70351 5.83033 6.71015 5.18287 6.97577 4.67818C7.0953 4.45904 7.41073 4.14029 7.64979 4.00084C7.99843 3.7983 8.53632 3.72857 8.94804 3.83482Z" fill="#282522"/>
<path d="M3.52211 10.2133C3.23989 10.4125 3.37934 10.8574 3.72465 10.8574C3.89067 10.8574 3.97036 10.8143 4.03344 10.6914C4.16625 10.4357 4.01352 10.1635 3.73461 10.1602C3.66157 10.1602 3.56528 10.1834 3.52211 10.2133Z" fill="#282522"/>
<path d="M13.1987 10.5752C13.1091 10.6615 13.0892 10.8143 13.1489 10.9238C13.1689 10.9604 13.3714 11.0766 13.5972 11.1861C14.1716 11.4617 14.6331 11.7705 14.9618 12.1025C15.4698 12.6172 15.6458 13.1551 15.4798 13.7029C15.1013 14.9447 13.0759 15.9541 10.2105 16.326C9.53644 16.4123 7.46456 16.4123 6.79054 16.326C5.37941 16.1434 4.2671 15.8412 3.33741 15.3896C2.31476 14.8949 1.7171 14.3371 1.5212 13.7029C1.29874 12.9658 1.71378 12.2121 2.69659 11.5713C3.03858 11.3488 3.09835 11.2193 2.93566 11.0268C2.78292 10.8441 2.62687 10.8939 2.0923 11.2824C1.21573 11.9232 0.767491 12.7932 0.896983 13.5967C0.976671 14.0914 1.18917 14.4699 1.64405 14.9281C2.67335 15.9641 4.49288 16.6514 6.90675 16.9236C7.62726 17.0033 9.37042 17.0033 10.0942 16.9236C12.0034 16.7111 13.5806 16.2164 14.6929 15.4826C15.0814 15.227 15.6325 14.6891 15.8019 14.4035C16.2003 13.7229 16.2335 13.092 15.9048 12.4014C15.5993 11.7605 14.9419 11.1961 13.9292 10.7014C13.4478 10.4689 13.3249 10.4457 13.1987 10.5752Z" fill="#282522"/>
</g>
<defs>
<clipPath id="clip0_171_429">
<rect width="17" height="17" fill="white"/>
</clipPath>
</defs>
</svg>
