<svg width="20" height="20" viewBox="0 0 20 20" fill="none" xmlns="http://www.w3.org/2000/svg">
<path d="M17.8932 1.2943C17.8385 1.31384 16.0416 3.08337 13.901 5.2279L10.0026 9.12243L6.10804 5.2279C1.86976 0.993523 2.13929 1.23962 1.7721 1.30993C1.5807 1.34509 1.34632 1.57946 1.31117 1.77087C1.24085 2.13805 0.994759 1.86852 5.22913 6.1029L9.12367 10.0013L5.2096 13.9154C0.963509 18.1693 1.20179 17.9037 1.2682 18.267C1.30335 18.4506 1.55335 18.7006 1.73695 18.7357C2.10023 18.8021 1.8346 19.0404 6.0846 14.7943L10.0026 10.8802L13.9166 14.7943C18.1744 19.0482 17.9049 18.8021 18.2721 18.7318C18.4635 18.6966 18.6979 18.4623 18.733 18.2709C18.8034 17.9037 19.0494 18.1732 14.7955 13.9193L10.8815 10.0013L14.7955 6.08727C19.0377 1.84118 18.8034 2.09899 18.7369 1.73962C18.6705 1.38415 18.2409 1.15759 17.8932 1.2943Z" fill="#282522"/>
</svg>
