<svg width="24" height="24" viewBox="0 0 24 24" fill="none" xmlns="http://www.w3.org/2000/svg">
<path d="M1.01385 4.39375C2.20447 2.41562 4.13104 1.18281 6.2826 1.01406C6.87322 0.971872 7.86229 1.09375 8.5326 1.29531C9.72322 1.65625 11.0826 2.58906 11.767 3.5125C11.8842 3.66718 11.9873 3.79375 12.0014 3.79375C12.0154 3.79375 12.1185 3.66718 12.2357 3.5125C12.9201 2.58906 14.2795 1.65625 15.4701 1.29531C16.642 0.943748 17.9029 0.924999 19.0092 1.24375C21.1701 1.87187 22.9607 3.66719 23.6685 5.93594C24.3154 7.98438 23.992 10.4547 22.7545 12.9391C21.4326 15.5875 19.2248 18.0766 16.1029 20.425C14.5982 21.5594 12.3107 22.9844 12.0014 22.9844C11.6873 22.9844 9.39979 21.5547 7.85291 20.3875C4.75447 18.0531 2.56541 15.5828 1.24822 12.9391C-0.317401 9.79375 -0.397089 6.74687 1.01385 4.39375Z" fill="#767370"/>
</svg>
