<svg width="21" height="21" viewBox="0 0 21 21" fill="none" xmlns="http://www.w3.org/2000/svg">
<rect x="0.25" y="0.25" width="20.5" height="20.5" stroke="#282522" stroke-width="0.5"/>
<path d="M13.6526 7.01303C13.6308 7.02085 12.9128 7.72866 12.0576 8.58647L10.5001 10.1443L8.94406 8.58647C7.25073 6.89272 7.35842 6.99116 7.21172 7.01928C7.13525 7.03335 7.0416 7.1271 7.02756 7.20366C6.99947 7.35053 6.90114 7.24272 8.59291 8.93647L10.1489 10.4958L8.58511 12.0615C6.88866 13.763 6.98386 13.6568 7.01039 13.8021C7.02444 13.8755 7.12432 13.9755 7.19767 13.9896C7.34281 14.0162 7.23669 14.1115 8.9347 12.413L10.5001 10.8474L12.0638 12.413C13.765 14.1146 13.6573 14.0162 13.804 13.988C13.8805 13.974 13.9741 13.8802 13.9882 13.8037C14.0162 13.6568 14.1146 13.7646 12.415 12.063L10.8512 10.4958L12.415 8.93022C14.1099 7.23178 14.0162 7.33491 13.9897 7.19116C13.9632 7.04897 13.7915 6.95835 13.6526 7.01303Z" fill="#282522"/>
</svg>
