<svg width="28" height="29" viewBox="0 0 28 29" fill="none" xmlns="http://www.w3.org/2000/svg">
<path d="M12.4105 2.05888C8.20508 2.62216 4.5957 5.20341 2.7582 8.9495C2.17305 10.1526 1.82305 11.23 1.59883 12.5753C1.45664 13.4065 1.45664 15.594 1.59883 16.4253C1.82305 17.7651 2.16758 18.837 2.7582 20.0511C4.45352 23.5183 7.75664 26.0503 11.5629 26.7995C13.384 27.155 15.4238 27.0894 17.2449 26.6136C20.1105 25.8644 22.7355 23.9831 24.4199 21.462C26.7605 17.962 27.1816 13.4394 25.5301 9.59482C23.8457 5.65732 20.3457 2.88466 16.1293 2.14091C15.2488 1.98232 13.2855 1.94404 12.4105 2.05888ZM15.2543 3.787C16.523 3.94013 17.573 4.25732 18.727 4.8206C21.877 6.36826 23.977 9.16279 24.6387 12.6956C24.759 13.33 24.8027 15.0089 24.7207 15.687C24.5676 16.9339 24.2449 18.0495 23.7254 19.1378C22.1285 22.5065 18.9238 24.7815 15.1777 25.2245C14.4887 25.3065 12.8207 25.2573 12.1918 25.1425C9.8293 24.6995 7.89336 23.6714 6.24727 21.987C5.38867 21.1065 4.87461 20.3683 4.3168 19.2308C3.55117 17.6722 3.22305 16.2448 3.22305 14.5003C3.22305 12.7503 3.55664 11.3175 4.3168 9.76982C5.41055 7.54404 7.03477 5.91982 9.26602 4.8206C10.3816 4.27372 11.4809 3.94013 12.684 3.787C13.209 3.72138 14.7238 3.71591 15.2543 3.787Z" fill="#282522"/>
<path d="M13.7266 8.69801C13.1523 8.88395 12.8516 9.2777 12.8516 9.85192C12.8516 10.1691 12.9773 10.459 13.218 10.6832C13.7867 11.2246 14.7109 11.0386 15.0445 10.3168C15.2305 9.91208 15.1484 9.35426 14.8586 9.04254C14.6016 8.76364 14.0438 8.59411 13.7266 8.69801Z" fill="#282522"/>
<path d="M13.5563 12.5979C13.4578 12.6689 13.3211 12.7947 13.261 12.8768C13.1461 13.0299 13.1461 13.0736 13.1297 16.776C13.1188 20.4182 13.1188 20.5221 13.2227 20.7299C13.5399 21.3479 14.4477 21.3479 14.7649 20.7299C14.8688 20.5221 14.8688 20.4182 14.8578 16.776C14.8414 13.0736 14.8414 13.0299 14.7266 12.8768C14.5352 12.6143 14.2781 12.4775 13.9938 12.4775C13.8188 12.4775 13.682 12.5158 13.5563 12.5979Z" fill="#282522"/>
</svg>
