<svg width="19" height="19" viewBox="0 0 19 19" fill="none" xmlns="http://www.w3.org/2000/svg">
<path d="M7.737 2.76098C5.13563 3.18774 3.13915 5.19536 2.76063 7.76333C2.67899 8.32368 2.70497 9.32192 2.8163 9.84145C3.50653 13.0403 6.56806 15.0665 9.79657 14.4504C10.6575 14.2872 11.5407 13.879 12.3052 13.2815L12.5315 13.1071L14.0679 14.6471C14.914 15.4932 15.6487 16.2094 15.7044 16.2391C16.0718 16.4321 16.4317 16.0721 16.2388 15.7047C16.2091 15.6491 15.4929 14.9143 14.6468 14.0682L13.1067 12.5319L13.2811 12.3055C14.3907 10.8805 14.7989 9.14008 14.4352 7.39965C13.9602 5.11743 12.153 3.31762 9.83739 2.81665C9.38095 2.71645 8.18974 2.68676 7.737 2.76098ZM9.69267 3.59965C10.3421 3.73696 10.8987 3.97075 11.4516 4.33442C12.6058 5.10258 13.3813 6.24184 13.6782 7.60747C13.7599 7.98227 13.7895 8.87661 13.7339 9.28852C13.4222 11.6153 11.6149 13.4225 9.28817 13.7342C8.87626 13.7899 7.98192 13.7602 7.60712 13.6786C5.56981 13.237 4.02977 11.7006 3.59188 9.67446C3.48427 9.16977 3.47313 8.16411 3.57333 7.67055C3.99267 5.59243 5.61806 3.97075 7.66278 3.58481C8.13036 3.49575 8.14892 3.49204 8.75751 3.50688C9.15458 3.51801 9.44403 3.54399 9.69267 3.59965Z" fill="#767370"/>
</svg>
