<svg width="16" height="16" viewBox="0 0 16 16" fill="none" xmlns="http://www.w3.org/2000/svg">
<g clip-path="url(#clip0_179_1024)">
<path d="M7.40821 0.0312328C6.19883 0.178108 5.09571 0.731234 4.25196 1.61561C3.54258 2.35623 3.07383 3.26561 2.88946 4.26561C2.80821 4.70311 2.80821 5.54061 2.88633 5.89061C3.28008 7.58123 4.71446 10.1156 7.03008 13.2031C7.87071 14.325 7.91133 14.3656 8.09571 14.2781C8.15508 14.25 8.37383 13.9875 8.70821 13.5469C11.0457 10.4562 12.5301 7.94373 13.0176 6.25311C13.1676 5.73436 13.202 5.44373 13.1801 4.92498C13.1582 4.43436 13.0895 4.04686 12.9395 3.57811C12.7332 2.93123 12.3145 2.20936 11.8738 1.73748C11.6738 1.52186 11.6426 1.49998 11.5332 1.49998C11.4363 1.49998 11.3957 1.51873 11.3301 1.59998C11.2176 1.73123 11.2426 1.83748 11.4332 2.05311C12.2301 2.96561 12.6363 3.99686 12.6395 5.12498C12.6395 5.45623 12.6238 5.60623 12.5707 5.82811C12.2707 7.04686 11.5457 8.47186 10.1738 10.5469C9.42071 11.6844 8.07383 13.5469 8.00196 13.5469C7.93321 13.5469 6.63321 11.7531 5.88008 10.625C4.28008 8.22186 3.46446 6.51248 3.36133 5.34373C3.33321 5.03436 3.39258 4.47498 3.50196 4.04061C3.89883 2.46561 5.13321 1.19061 6.70821 0.734358C7.19883 0.590608 7.54571 0.553108 8.15508 0.571858C8.77071 0.590608 8.98946 0.628108 9.53946 0.815608C9.92696 0.946858 10.0145 0.949983 10.1176 0.837483C10.1926 0.753108 10.1895 0.549983 10.1113 0.471858C9.98633 0.356233 9.40821 0.168733 8.89258 0.0781078C8.55508 0.018733 7.73633 -0.00626659 7.40821 0.0312328Z" fill="#CCCCCC"/>
<path d="M7.65486 3.03136C7.18611 3.11574 6.81736 3.30949 6.47049 3.65636C6.24236 3.88449 6.17674 3.96886 6.05799 4.21886C5.87049 4.61261 5.83299 4.78449 5.83611 5.21886C5.83924 5.51574 5.85486 5.62199 5.92049 5.82824C6.03299 6.17199 6.19861 6.44074 6.45799 6.70636C7.05799 7.31574 7.92049 7.51574 8.73299 7.23449C9.04861 7.12511 9.27049 6.98136 9.53611 6.71886C9.80799 6.44699 9.97361 6.18136 10.0892 5.82824C10.2049 5.47824 10.2111 4.94074 10.1017 4.59386C9.97986 4.19699 9.82986 3.95011 9.53611 3.65636C9.24549 3.36261 8.99549 3.21261 8.61424 3.09386C8.36736 3.01886 7.88924 2.98761 7.65486 3.03136ZM8.42674 3.60949C8.70174 3.68136 8.90486 3.80324 9.14549 4.04699C9.48924 4.39074 9.62986 4.71886 9.62986 5.18761C9.62986 5.65636 9.48924 5.98449 9.14549 6.32824C8.63299 6.84074 7.92986 6.95636 7.26111 6.63449C7.04236 6.52824 6.67986 6.17511 6.56111 5.95011C6.31424 5.48761 6.32049 4.87824 6.57049 4.40324C6.68299 4.19699 6.97986 3.89699 7.20486 3.76574C7.53299 3.57511 8.03924 3.50949 8.42674 3.60949Z" fill="#CCCCCC"/>
<path d="M3.32182 9.6125C3.0562 9.8 3.18745 10.2188 3.51245 10.2188C3.6687 10.2188 3.7437 10.1781 3.80307 10.0625C3.92807 9.82188 3.78432 9.56563 3.52182 9.5625C3.45307 9.5625 3.36245 9.58437 3.32182 9.6125Z" fill="#CCCCCC"/>
<path d="M12.4269 9.95312C12.3426 10.0344 12.3238 10.1781 12.3801 10.2812C12.3988 10.3156 12.5894 10.425 12.8019 10.5281C13.3426 10.7875 13.7769 11.0781 14.0863 11.3906C14.5644 11.875 14.7301 12.3812 14.5738 12.8969C14.2176 14.0656 12.3113 15.0156 9.61444 15.3656C8.98007 15.4469 7.03007 15.4469 6.39569 15.3656C5.06757 15.1937 4.02069 14.9094 3.14569 14.4844C2.18319 14.0187 1.62069 13.4937 1.43632 12.8969C1.22694 12.2031 1.61756 11.4937 2.54256 10.8906C2.86444 10.6812 2.92069 10.5594 2.76757 10.3781C2.62381 10.2062 2.47694 10.2531 1.97381 10.6187C1.14881 11.2219 0.72694 12.0406 0.848815 12.7969C0.923815 13.2625 1.12381 13.6187 1.55194 14.05C2.52069 15.025 4.23319 15.6719 6.50507 15.9281C7.18319 16.0031 8.82382 16.0031 9.50506 15.9281C11.3019 15.7281 12.7863 15.2625 13.8332 14.5719C14.1988 14.3312 14.7176 13.825 14.8769 13.5562C15.2519 12.9156 15.2832 12.3219 14.9738 11.6719C14.6863 11.0687 14.0676 10.5375 13.1144 10.0719C12.6613 9.85312 12.5457 9.83125 12.4269 9.95312Z" fill="#CCCCCC"/>
</g>
<defs>
<clipPath id="clip0_179_1024">
<rect width="16" height="16" fill="white"/>
</clipPath>
</defs>
</svg>
